<svg width="24" height="24" viewBox="0 0 24 24" fill="none" xmlns="http://www.w3.org/2000/svg">
<path d="M8.90322 17.9002C8.90322 19.6116 10.2906 21 12.0021 21C13.7145 21 15.1019 19.6116 15.1019 17.9002M5.43653 9.56643C5.43653 5.93928 8.37678 3 12.003 3C15.6291 3 18.5694 5.93928 18.5694 9.56643L18.5704 10.8848C18.5704 11.6651 18.7416 12.4347 19.0744 13.1401L19.5404 14.1305C20.2526 15.6444 19.1483 17.3851 17.4748 17.3851H6.5311C4.85763 17.3851 3.75333 15.6444 4.46553 14.1305L4.93157 13.1401C5.26335 12.4347 5.43556 11.6651 5.43556 10.8848L5.43653 9.56643Z" stroke="#4169E1" stroke-width="1.5" stroke-linecap="round" stroke-linejoin="round"/>
</svg>
