<svg width="26" height="26" viewBox="0 0 26 26" fill="none" xmlns="http://www.w3.org/2000/svg">
<path d="M17.9156 24.375H8.08437C5.41125 24.375 3.25 22.2137 3.25 19.5406V9.77437C3.25 7.06875 5.44375 4.875 8.14937 4.875H17.8587C20.5562 4.875 22.75 7.06875 22.75 9.77437V19.5487C22.75 22.2137 20.5887 24.375 17.9156 24.375Z" fill="url(#paint0_radial_196_269)"/>
<path d="M3.25 9.75C3.25 7.05761 5.43261 4.875 8.125 4.875H9.75V24.375H8.125C5.43261 24.375 3.25 22.1924 3.25 19.5V9.75Z" fill="url(#paint1_linear_196_269)"/>
<path d="M3.25 19.5H22.75C22.75 22.1924 20.5674 24.375 17.875 24.375H8.125C5.43261 24.375 3.25 22.1924 3.25 19.5Z" fill="url(#paint2_linear_196_269)"/>
<path d="M16.25 4.875H17.875C20.5674 4.875 22.75 7.05761 22.75 9.75V19.5C22.75 22.1924 20.5674 24.375 17.875 24.375H16.25V4.875Z" fill="url(#paint3_radial_196_269)"/>
<path d="M2.84375 3.20932V10.6031" stroke="url(#paint4_linear_196_269)" stroke-miterlimit="10"/>
<path d="M3.25 9.75V18.6875C2.35625 18.6875 1.625 17.9569 1.625 17.064V11.3735C1.625 10.4806 2.35625 9.75 3.25 9.75Z" fill="url(#paint5_linear_196_269)"/>
<path d="M18.4865 15.0312H7.5135C5.61259 15.0312 4.0625 13.4802 4.0625 11.5781C4.0625 9.67606 5.61259 8.125 7.5135 8.125H18.4865C20.3874 8.125 21.9375 9.67606 21.9375 11.5781C21.9375 13.4721 20.3793 15.0312 18.4865 15.0312Z" fill="url(#paint6_linear_196_269)"/>
<path d="M15.0542 21.125H10.9458C10.2869 21.125 9.75 20.5778 9.75 19.9062C9.75 19.2347 10.2869 18.6875 10.9458 18.6875H15.0542C15.7131 18.6875 16.25 19.2347 16.25 19.9062C16.25 20.5778 15.7131 21.125 15.0542 21.125Z" fill="url(#paint7_linear_196_269)"/>
<path d="M2.84375 4.0625C3.51685 4.0625 4.0625 3.51685 4.0625 2.84375C4.0625 2.17065 3.51685 1.625 2.84375 1.625C2.17065 1.625 1.625 2.17065 1.625 2.84375C1.625 3.51685 2.17065 4.0625 2.84375 4.0625Z" fill="url(#paint8_radial_196_269)"/>
<path d="M23.1562 3.25V10.6356" stroke="url(#paint9_linear_196_269)" stroke-miterlimit="10"/>
<path d="M23.1563 4.14375C23.8519 4.14375 24.4157 3.57991 24.4157 2.88437C24.4157 2.18884 23.8519 1.625 23.1563 1.625C22.4608 1.625 21.897 2.18884 21.897 2.88437C21.897 3.57991 22.4608 4.14375 23.1563 4.14375Z" fill="url(#paint10_radial_196_269)"/>
<path d="M7.71875 9.75H7.3125C6.41504 9.75 5.6875 10.4775 5.6875 11.375V13C5.6875 13.8975 6.41504 14.625 7.3125 14.625H7.71875C8.61621 14.625 9.34375 13.8975 9.34375 13V11.375C9.34375 10.4775 8.61621 9.75 7.71875 9.75Z" fill="url(#paint11_radial_196_269)"/>
<path d="M17.0625 9.75H16.6562C15.7588 9.75 15.0312 10.4775 15.0312 11.375V13C15.0312 13.8975 15.7588 14.625 16.6562 14.625H17.0625C17.96 14.625 18.6875 13.8975 18.6875 13V11.375C18.6875 10.4775 17.96 9.75 17.0625 9.75Z" fill="url(#paint12_radial_196_269)"/>
<path d="M15.8438 2.4375H10.1562C9.48315 2.4375 8.9375 2.98315 8.9375 3.65625C8.9375 4.32935 9.48315 4.875 10.1562 4.875H15.8438C16.5168 4.875 17.0625 4.32935 17.0625 3.65625C17.0625 2.98315 16.5168 2.4375 15.8438 2.4375Z" fill="url(#paint13_linear_196_269)"/>
<path d="M15.8438 2.4375H10.1562C9.48315 2.4375 8.9375 2.98315 8.9375 3.65625C8.9375 4.32935 9.48315 4.875 10.1562 4.875H15.8438C16.5168 4.875 17.0625 4.32935 17.0625 3.65625C17.0625 2.98315 16.5168 2.4375 15.8438 2.4375Z" fill="url(#paint14_radial_196_269)"/>
<path d="M22.75 18.6388V9.69321C23.6438 9.69321 24.375 10.4245 24.375 11.3182V17.0138C24.375 17.9076 23.6438 18.6388 22.75 18.6388Z" fill="url(#paint15_linear_196_269)"/>
<path d="M9.34375 10.7656C9.34375 10.2047 8.88904 9.75 8.32812 9.75C7.76721 9.75 7.3125 10.2047 7.3125 10.7656V12.7969C7.3125 13.3578 7.76721 13.8125 8.32812 13.8125C8.88904 13.8125 9.34375 13.3578 9.34375 12.7969V10.7656Z" fill="url(#paint16_linear_196_269)"/>
<path d="M9.34375 10.7656C9.34375 10.2047 8.88904 9.75 8.32812 9.75C7.76721 9.75 7.3125 10.2047 7.3125 10.7656V12.7969C7.3125 13.3578 7.76721 13.8125 8.32812 13.8125C8.88904 13.8125 9.34375 13.3578 9.34375 12.7969V10.7656Z" fill="url(#paint17_radial_196_269)"/>
<path d="M18.6875 10.7656C18.6875 10.2047 18.2328 9.75 17.6719 9.75C17.111 9.75 16.6562 10.2047 16.6562 10.7656V12.7969C16.6562 13.3578 17.111 13.8125 17.6719 13.8125C18.2328 13.8125 18.6875 13.3578 18.6875 12.7969V10.7656Z" fill="url(#paint18_linear_196_269)"/>
<path d="M18.6875 10.7656C18.6875 10.2047 18.2328 9.75 17.6719 9.75C17.111 9.75 16.6562 10.2047 16.6562 10.7656V12.7969C16.6562 13.3578 17.111 13.8125 17.6719 13.8125C18.2328 13.8125 18.6875 13.3578 18.6875 12.7969V10.7656Z" fill="url(#paint19_radial_196_269)"/>
<g filter="url(#filter0_f_196_269)">
<path d="M2.94531 4.0625V8.9375" stroke="url(#paint20_linear_196_269)" stroke-width="0.25"/>
</g>
<g filter="url(#filter1_f_196_269)">
<path d="M23.2578 4.0625V8.9375" stroke="url(#paint21_linear_196_269)" stroke-width="0.25"/>
</g>
<path d="M23.5625 12.1875C24.0112 12.1875 24.375 11.6418 24.375 10.9688C24.375 10.2957 24.0112 9.75 23.5625 9.75C23.1138 9.75 22.75 10.2957 22.75 10.9688C22.75 11.6418 23.1138 12.1875 23.5625 12.1875Z" fill="url(#paint22_radial_196_269)"/>
<path d="M23.5625 17.0625C24.0112 17.0625 24.375 15.4255 24.375 13.4062C24.375 11.387 24.0112 9.75 23.5625 9.75C23.1138 9.75 22.75 11.387 22.75 13.4062C22.75 15.4255 23.1138 17.0625 23.5625 17.0625Z" fill="url(#paint23_radial_196_269)"/>
<path fill-rule="evenodd" clip-rule="evenodd" d="M16.0677 2.45804C16.5613 2.5497 16.9503 2.93877 17.0419 3.43231C16.9592 3.79326 16.636 4.06251 16.25 4.06251C15.8013 4.06251 15.4375 3.69873 15.4375 3.25001C15.4375 2.86396 15.7068 2.54078 16.0677 2.45804Z" fill="url(#paint24_radial_196_269)"/>
<defs>
<filter id="filter0_f_196_269" x="2.32031" y="3.5625" width="1.25" height="5.875" filterUnits="userSpaceOnUse" color-interpolation-filters="sRGB">
<feFlood flood-opacity="0" result="BackgroundImageFix"/>
<feBlend mode="normal" in="SourceGraphic" in2="BackgroundImageFix" result="shape"/>
<feGaussianBlur stdDeviation="0.25" result="effect1_foregroundBlur_196_269"/>
</filter>
<filter id="filter1_f_196_269" x="22.6328" y="3.5625" width="1.25" height="5.875" filterUnits="userSpaceOnUse" color-interpolation-filters="sRGB">
<feFlood flood-opacity="0" result="BackgroundImageFix"/>
<feBlend mode="normal" in="SourceGraphic" in2="BackgroundImageFix" result="shape"/>
<feGaussianBlur stdDeviation="0.25" result="effect1_foregroundBlur_196_269"/>
</filter>
<radialGradient id="paint0_radial_196_269" cx="0" cy="0" r="1" gradientUnits="userSpaceOnUse" gradientTransform="translate(20.3123 9.34387) rotate(141.911) scale(19.0981)">
<stop stop-color="#EEEBF0"/>
<stop offset="0.493" stop-color="#D1BEE3"/>
<stop offset="1" stop-color="#D0BCE2"/>
</radialGradient>
<linearGradient id="paint1_linear_196_269" x1="9.75" y1="14.625" x2="3.25" y2="14.625" gradientUnits="userSpaceOnUse">
<stop stop-color="#D5B2C0" stop-opacity="0"/>
<stop offset="1" stop-color="#B4878D"/>
</linearGradient>
<linearGradient id="paint2_linear_196_269" x1="13" y1="21.9375" x2="13" y2="25.1875" gradientUnits="userSpaceOnUse">
<stop stop-color="#B17EDB" stop-opacity="0"/>
<stop offset="1" stop-color="#A56BD6"/>
</linearGradient>
<radialGradient id="paint3_radial_196_269" cx="0" cy="0" r="1" gradientUnits="userSpaceOnUse" gradientTransform="translate(20.3125 10.9687) rotate(-5.71059) scale(4.08276 15.6052)">
<stop stop-color="#F0EAF6"/>
<stop offset="1" stop-color="#E7E0EF" stop-opacity="0"/>
</radialGradient>
<linearGradient id="paint4_linear_196_269" x1="-nan" y1="-nan" x2="-nan" y2="-nan" gradientUnits="userSpaceOnUse">
<stop stop-color="#EA248A"/>
<stop offset="1" stop-color="#DF2232"/>
</linearGradient>
<linearGradient id="paint5_linear_196_269" x1="2.4375" y1="9.75" x2="2.4375" y2="18.6875" gradientUnits="userSpaceOnUse">
<stop stop-color="#E93273"/>
<stop offset="1" stop-color="#D21844"/>
</linearGradient>
<linearGradient id="paint6_linear_196_269" x1="12.9984" y1="14.3821" x2="12.9984" y2="9.25519" gradientUnits="userSpaceOnUse">
<stop offset="0.006" stop-color="#443E75"/>
<stop offset="1" stop-color="#2F1A3B"/>
</linearGradient>
<linearGradient id="paint7_linear_196_269" x1="12.9984" y1="20.8699" x2="12.9984" y2="18.5973" gradientUnits="userSpaceOnUse">
<stop offset="0.006" stop-color="#39325E"/>
<stop offset="1" stop-color="#2B1831"/>
</linearGradient>
<radialGradient id="paint8_radial_196_269" cx="0" cy="0" r="1" gradientUnits="userSpaceOnUse" gradientTransform="translate(3.25 2.4375) rotate(104.036) scale(1.67501)">
<stop stop-color="#FF6C82"/>
<stop offset="0.441" stop-color="#FF2455"/>
<stop offset="1" stop-color="#D9206C"/>
</radialGradient>
<linearGradient id="paint9_linear_196_269" x1="-nan" y1="-nan" x2="-nan" y2="-nan" gradientUnits="userSpaceOnUse">
<stop stop-color="#EA248A"/>
<stop offset="1" stop-color="#DF2232"/>
</linearGradient>
<radialGradient id="paint10_radial_196_269" cx="0" cy="0" r="1" gradientUnits="userSpaceOnUse" gradientTransform="translate(23.5756 2.46422) rotate(104.036) scale(1.73084)">
<stop stop-color="#FF6C82"/>
<stop offset="0.441" stop-color="#FF2455"/>
<stop offset="1" stop-color="#D9206C"/>
</radialGradient>
<radialGradient id="paint11_radial_196_269" cx="0" cy="0" r="1" gradientTransform="matrix(-2.03125 0.40625 -0.555977 -2.77985 7.71875 12.1875)" gradientUnits="userSpaceOnUse">
<stop stop-color="#322649"/>
<stop offset="1" stop-color="#342950" stop-opacity="0"/>
</radialGradient>
<radialGradient id="paint12_radial_196_269" cx="0" cy="0" r="1" gradientTransform="matrix(-2.03125 0.40625 -0.555977 -2.77985 17.0625 12.1875)" gradientUnits="userSpaceOnUse">
<stop stop-color="#322649"/>
<stop offset="1" stop-color="#342950" stop-opacity="0"/>
</radialGradient>
<linearGradient id="paint13_linear_196_269" x1="13" y1="2.4375" x2="11.7812" y2="5.28125" gradientUnits="userSpaceOnUse">
<stop stop-color="#FFCE2B"/>
<stop offset="1" stop-color="#D9862D"/>
</linearGradient>
<radialGradient id="paint14_radial_196_269" cx="0" cy="0" r="1" gradientUnits="userSpaceOnUse" gradientTransform="translate(13 3.25) rotate(90) scale(2.4375 8.125)">
<stop offset="0.431" stop-color="#CA7E29" stop-opacity="0"/>
<stop offset="1" stop-color="#673F13"/>
</radialGradient>
<linearGradient id="paint15_linear_196_269" x1="23.5625" y1="9.69313" x2="23.5625" y2="18.6388" gradientUnits="userSpaceOnUse">
<stop stop-color="#FF30AA"/>
<stop offset="1" stop-color="#FF2353"/>
</linearGradient>
<linearGradient id="paint16_linear_196_269" x1="9.34375" y1="11.375" x2="7.3125" y2="11.375" gradientUnits="userSpaceOnUse">
<stop stop-color="#29B6FE"/>
<stop offset="1" stop-color="#1769A8"/>
</linearGradient>
<radialGradient id="paint17_radial_196_269" cx="0" cy="0" r="1" gradientUnits="userSpaceOnUse" gradientTransform="translate(8.9375 10.9687) rotate(90) scale(2.03125 0.929443)">
<stop stop-color="#54C8FF"/>
<stop offset="1" stop-color="#54C8FF" stop-opacity="0"/>
</radialGradient>
<linearGradient id="paint18_linear_196_269" x1="18.6875" y1="11.375" x2="16.6562" y2="11.375" gradientUnits="userSpaceOnUse">
<stop stop-color="#29B6FE"/>
<stop offset="1" stop-color="#1769A8"/>
</linearGradient>
<radialGradient id="paint19_radial_196_269" cx="0" cy="0" r="1" gradientUnits="userSpaceOnUse" gradientTransform="translate(18.2812 10.9687) rotate(90) scale(2.03125 0.929443)">
<stop stop-color="#54C8FF"/>
<stop offset="1" stop-color="#54C8FF" stop-opacity="0"/>
</radialGradient>
<linearGradient id="paint20_linear_196_269" x1="-nan" y1="-nan" x2="-nan" y2="-nan" gradientUnits="userSpaceOnUse">
<stop stop-color="#FF96CB"/>
<stop offset="1" stop-color="#FF6DB7" stop-opacity="0"/>
</linearGradient>
<linearGradient id="paint21_linear_196_269" x1="-nan" y1="-nan" x2="-nan" y2="-nan" gradientUnits="userSpaceOnUse">
<stop stop-color="#FF96CB"/>
<stop offset="1" stop-color="#FF6DB7" stop-opacity="0"/>
</linearGradient>
<radialGradient id="paint22_radial_196_269" cx="0" cy="0" r="1" gradientUnits="userSpaceOnUse" gradientTransform="translate(23.5625 10.9688) rotate(90) scale(1.21875 0.8125)">
<stop stop-color="#FF72C1"/>
<stop offset="1" stop-color="#FF6EBF" stop-opacity="0"/>
</radialGradient>
<radialGradient id="paint23_radial_196_269" cx="0" cy="0" r="1" gradientUnits="userSpaceOnUse" gradientTransform="translate(23.5625 13.4062) rotate(90) scale(3.65625 0.454545)">
<stop stop-color="#FF4B9C"/>
<stop offset="1" stop-color="#FF73C1" stop-opacity="0"/>
</radialGradient>
<radialGradient id="paint24_radial_196_269" cx="0" cy="0" r="1" gradientUnits="userSpaceOnUse" gradientTransform="translate(16.25 3.25001) rotate(90) scale(0.8125)">
<stop stop-color="#FFEA60"/>
<stop offset="1" stop-color="#FFEF66" stop-opacity="0"/>
</radialGradient>
</defs>
</svg>
