<svg width="26" height="26" viewBox="0 0 26 26" fill="none" xmlns="http://www.w3.org/2000/svg">
<g filter="url(#filter0_iii_205_1819)">
<path d="M12.8547 9.02363C12.7163 9.56134 12.2461 9.96247 11.6903 10.2403C10.115 10.7855 8.87053 11.3098 7.84084 11.8188C6.92929 12.2694 6.93809 13.6935 7.8526 14.1381C8.92115 14.6575 10.2627 15.1557 11.7526 15.7463C12.1533 15.9052 12.7194 16.3538 12.8603 16.9054C13.2946 18.6049 13.8854 20.404 14.5361 22.0649C15.0411 23.3542 16.2898 23.3532 16.7974 22.0649C17.4562 20.3925 17.9567 18.5859 18.5217 16.8672C18.6569 16.3365 19.0572 15.9168 19.5733 15.734C20.9684 15.2397 22.3132 14.682 23.4093 14.1993C24.433 13.7484 24.4541 12.2846 23.4433 11.8057C22.3638 11.2943 21.0211 10.7022 19.5666 10.1736C19.0547 9.98766 18.6609 9.59506 18.4789 9.03785C17.8659 7.1602 17.4774 5.5683 16.8261 3.91513C16.3186 2.62679 14.9861 2.66644 14.4786 3.95478C13.8297 5.60185 13.3767 7.24129 12.8547 9.02363Z" fill="url(#paint0_linear_205_1819)"/>
</g>
<path d="M12.8547 9.02363C12.7163 9.56134 12.2461 9.96247 11.6903 10.2403C10.115 10.7855 8.87053 11.3098 7.84084 11.8188C6.92929 12.2694 6.93809 13.6935 7.8526 14.1381C8.92115 14.6575 10.2627 15.1557 11.7526 15.7463C12.1533 15.9052 12.7194 16.3538 12.8603 16.9054C13.2946 18.6049 13.8854 20.404 14.5361 22.0649C15.0411 23.3542 16.2898 23.3532 16.7974 22.0649C17.4562 20.3925 17.9567 18.5859 18.5217 16.8672C18.6569 16.3365 19.0572 15.9168 19.5733 15.734C20.9684 15.2397 22.3132 14.682 23.4093 14.1993C24.433 13.7484 24.4541 12.2846 23.4433 11.8057C22.3638 11.2943 21.0211 10.7022 19.5666 10.1736C19.0547 9.98766 18.6609 9.59506 18.4789 9.03785C17.8659 7.1602 17.4774 5.5683 16.8261 3.91513C16.3186 2.62679 14.9861 2.66644 14.4786 3.95478C13.8297 5.60185 13.3767 7.24129 12.8547 9.02363Z" fill="url(#paint1_linear_205_1819)"/>
<g filter="url(#filter1_ii_205_1819)">
<path d="M6.3115 4.72575C6.26694 4.89882 6.11562 5.02793 5.93675 5.11736C5.4297 5.29279 5.02917 5.46157 4.69776 5.6254C4.40437 5.77043 4.40721 6.22877 4.70155 6.37186C5.04546 6.53905 5.47725 6.69941 5.95681 6.88951C6.08574 6.94062 6.26796 7.08503 6.31332 7.26254C6.4531 7.80954 6.64327 8.38858 6.85268 8.92321C7.01524 9.33815 7.41713 9.33782 7.58048 8.92321C7.79254 8.38492 7.95364 7.80345 8.13547 7.25024C8.17902 7.07944 8.3078 6.94438 8.47395 6.88552C8.92294 6.72647 9.35576 6.54696 9.70863 6.39156C10.0381 6.24645 10.0448 5.77532 9.71952 5.62119C9.37209 5.45659 8.93992 5.26599 8.47176 5.09589C8.30699 5.03602 8.18024 4.90967 8.12171 4.73033C7.92439 4.12599 7.79936 3.61363 7.58974 3.08154C7.42637 2.66688 6.99754 2.67965 6.83418 3.09431C6.62533 3.62443 6.47953 4.15209 6.3115 4.72575Z" fill="url(#paint2_linear_205_1819)"/>
</g>
<path d="M6.3115 4.72575C6.26694 4.89882 6.11562 5.02793 5.93675 5.11736C5.4297 5.29279 5.02917 5.46157 4.69776 5.6254C4.40437 5.77043 4.40721 6.22877 4.70155 6.37186C5.04546 6.53905 5.47725 6.69941 5.95681 6.88951C6.08574 6.94062 6.26796 7.08503 6.31332 7.26254C6.4531 7.80954 6.64327 8.38858 6.85268 8.92321C7.01524 9.33815 7.41713 9.33782 7.58048 8.92321C7.79254 8.38492 7.95364 7.80345 8.13547 7.25024C8.17902 7.07944 8.3078 6.94438 8.47395 6.88552C8.92294 6.72647 9.35576 6.54696 9.70863 6.39156C10.0381 6.24645 10.0448 5.77532 9.71952 5.62119C9.37209 5.45659 8.93992 5.26599 8.47176 5.09589C8.30699 5.03602 8.18024 4.90967 8.12171 4.73033C7.92439 4.12599 7.79936 3.61363 7.58974 3.08154C7.42637 2.66688 6.99754 2.67965 6.83418 3.09431C6.62533 3.62443 6.47953 4.15209 6.3115 4.72575Z" fill="url(#paint3_linear_205_1819)"/>
<g filter="url(#filter2_i_205_1819)">
<path d="M4.24615 16.3034C4.18401 16.5447 3.97301 16.7247 3.72359 16.8495C3.01651 17.0941 2.458 17.3294 1.99587 17.5579C1.58675 17.7601 1.5907 18.3992 2.00114 18.5988C2.48071 18.832 3.08282 19.0556 3.75154 19.3206C3.93133 19.3919 4.18543 19.5933 4.24868 19.8408C4.4436 20.6035 4.70879 21.4111 5.0008 22.1565C5.22748 22.7351 5.7879 22.7347 6.01569 22.1565C6.31138 21.4059 6.53603 20.5951 6.78958 19.8236C6.85026 19.5855 7.0299 19.3971 7.26158 19.3151C7.88771 19.0933 8.49128 18.8429 8.98325 18.6262C9.44264 18.4239 9.45214 17.7669 8.99844 17.552C8.51403 17.3225 7.91136 17.0567 7.25858 16.8195C7.02881 16.736 6.85206 16.5598 6.7704 16.3097C6.49524 15.467 6.3209 14.7526 6.02858 14.0106C5.80078 13.4323 5.20279 13.4501 4.97499 14.0284C4.68377 14.7676 4.48045 15.5034 4.24615 16.3034Z" fill="url(#paint4_radial_205_1819)"/>
</g>
<defs>
<filter id="filter0_iii_205_1819" x="6.76193" y="2.71848" width="17.6775" height="20.563" filterUnits="userSpaceOnUse" color-interpolation-filters="sRGB">
<feFlood flood-opacity="0" result="BackgroundImageFix"/>
<feBlend mode="normal" in="SourceGraphic" in2="BackgroundImageFix" result="shape"/>
<feColorMatrix in="SourceAlpha" type="matrix" values="0 0 0 0 0 0 0 0 0 0 0 0 0 0 0 0 0 0 127 0" result="hardAlpha"/>
<feOffset dx="0.25" dy="-0.25"/>
<feGaussianBlur stdDeviation="0.25"/>
<feComposite in2="hardAlpha" operator="arithmetic" k2="-1" k3="1"/>
<feColorMatrix type="matrix" values="0 0 0 0 0.937255 0 0 0 0 0.482353 0 0 0 0 0.329412 0 0 0 1 0"/>
<feBlend mode="normal" in2="shape" result="effect1_innerShadow_205_1819"/>
<feColorMatrix in="SourceAlpha" type="matrix" values="0 0 0 0 0 0 0 0 0 0 0 0 0 0 0 0 0 0 127 0" result="hardAlpha"/>
<feOffset dx="0.25" dy="0.25"/>
<feGaussianBlur stdDeviation="0.5"/>
<feComposite in2="hardAlpha" operator="arithmetic" k2="-1" k3="1"/>
<feColorMatrix type="matrix" values="0 0 0 0 0.737255 0 0 0 0 0.615686 0 0 0 0 0.415686 0 0 0 1 0"/>
<feBlend mode="normal" in2="effect1_innerShadow_205_1819" result="effect2_innerShadow_205_1819"/>
<feColorMatrix in="SourceAlpha" type="matrix" values="0 0 0 0 0 0 0 0 0 0 0 0 0 0 0 0 0 0 127 0" result="hardAlpha"/>
<feOffset dx="-0.4" dy="0.25"/>
<feGaussianBlur stdDeviation="0.2"/>
<feComposite in2="hardAlpha" operator="arithmetic" k2="-1" k3="1"/>
<feColorMatrix type="matrix" values="0 0 0 0 1 0 0 0 0 0.901961 0 0 0 0 0.458824 0 0 0 1 0"/>
<feBlend mode="normal" in2="effect2_innerShadow_205_1819" result="effect3_innerShadow_205_1819"/>
</filter>
<filter id="filter1_ii_205_1819" x="4.37925" y="2.77686" width="5.68041" height="6.55743" filterUnits="userSpaceOnUse" color-interpolation-filters="sRGB">
<feFlood flood-opacity="0" result="BackgroundImageFix"/>
<feBlend mode="normal" in="SourceGraphic" in2="BackgroundImageFix" result="shape"/>
<feColorMatrix in="SourceAlpha" type="matrix" values="0 0 0 0 0 0 0 0 0 0 0 0 0 0 0 0 0 0 127 0" result="hardAlpha"/>
<feOffset dx="0.1" dy="0.1"/>
<feGaussianBlur stdDeviation="0.1"/>
<feComposite in2="hardAlpha" operator="arithmetic" k2="-1" k3="1"/>
<feColorMatrix type="matrix" values="0 0 0 0 0.803922 0 0 0 0 0.6 0 0 0 0 0.262745 0 0 0 1 0"/>
<feBlend mode="normal" in2="shape" result="effect1_innerShadow_205_1819"/>
<feColorMatrix in="SourceAlpha" type="matrix" values="0 0 0 0 0 0 0 0 0 0 0 0 0 0 0 0 0 0 127 0" result="hardAlpha"/>
<feOffset dx="-0.1" dy="0.1"/>
<feGaussianBlur stdDeviation="0.1"/>
<feComposite in2="hardAlpha" operator="arithmetic" k2="-1" k3="1"/>
<feColorMatrix type="matrix" values="0 0 0 0 1 0 0 0 0 0.882353 0 0 0 0 0.423529 0 0 0 1 0"/>
<feBlend mode="normal" in2="effect1_innerShadow_205_1819" result="effect2_innerShadow_205_1819"/>
</filter>
<filter id="filter2_i_205_1819" x="1.69116" y="13.4357" width="7.79215" height="9.15464" filterUnits="userSpaceOnUse" color-interpolation-filters="sRGB">
<feFlood flood-opacity="0" result="BackgroundImageFix"/>
<feBlend mode="normal" in="SourceGraphic" in2="BackgroundImageFix" result="shape"/>
<feColorMatrix in="SourceAlpha" type="matrix" values="0 0 0 0 0 0 0 0 0 0 0 0 0 0 0 0 0 0 127 0" result="hardAlpha"/>
<feOffset dx="0.15" dy="-0.15"/>
<feGaussianBlur stdDeviation="0.15"/>
<feComposite in2="hardAlpha" operator="arithmetic" k2="-1" k3="1"/>
<feColorMatrix type="matrix" values="0 0 0 0 1 0 0 0 0 0.458824 0 0 0 0 0.462745 0 0 0 1 0"/>
<feBlend mode="normal" in2="shape" result="effect1_innerShadow_205_1819"/>
</filter>
<linearGradient id="paint0_linear_205_1819" x1="21.2298" y1="9.15769" x2="12.2297" y2="18.6314" gradientUnits="userSpaceOnUse">
<stop stop-color="#FFCF5A"/>
<stop offset="1" stop-color="#FEA254"/>
</linearGradient>
<linearGradient id="paint1_linear_205_1819" x1="11.9876" y1="23.7981" x2="16.8935" y2="13.4501" gradientUnits="userSpaceOnUse">
<stop stop-color="#FF886D"/>
<stop offset="1" stop-color="#FF886D" stop-opacity="0"/>
</linearGradient>
<linearGradient id="paint2_linear_205_1819" x1="9.00736" y1="4.76857" x2="6.1108" y2="7.81788" gradientUnits="userSpaceOnUse">
<stop stop-color="#FFDA72"/>
<stop offset="1" stop-color="#F7A967"/>
</linearGradient>
<linearGradient id="paint3_linear_205_1819" x1="7.21986" y1="9.73376" x2="7.21986" y2="6.38219" gradientUnits="userSpaceOnUse">
<stop stop-color="#FDA071"/>
<stop offset="1" stop-color="#FDA071" stop-opacity="0"/>
</linearGradient>
<radialGradient id="paint4_radial_205_1819" cx="0" cy="0" r="1" gradientTransform="matrix(-3.47766 4.57816 -4.45827 -3.38658 8.13638 15.0857)" gradientUnits="userSpaceOnUse">
<stop offset="0.365" stop-color="#FFBC64"/>
<stop offset="1" stop-color="#FF8F6B"/>
</radialGradient>
</defs>
</svg>
